<svg width="60" height="60" viewBox="0 0 60 60" fill="none" xmlns="http://www.w3.org/2000/svg">
<path fill-rule="evenodd" clip-rule="evenodd" d="M8.84902 34.2716C11.0241 33.5547 13.3648 34.736 14.0817 36.911C14.7986 39.0861 13.6173 41.4268 11.4423 42.1437C9.26719 42.8606 6.92648 41.6793 6.20961 39.5043C5.49273 37.3292 6.67395 34.9885 8.84902 34.2716Z" fill="#666666"/>
<path fill-rule="evenodd" clip-rule="evenodd" d="M24.3081 48.8996C22.4235 49.5215 20.3707 48.4869 19.7488 46.6024L15.5779 33.9511C14.9561 32.0666 15.9907 30.0137 17.8752 29.3919C19.7597 28.77 21.8126 29.8046 22.4344 31.6891L26.6053 44.3404C27.2272 46.2249 26.1926 48.2778 24.3081 48.8996Z" fill="#808080"/>
<path fill-rule="evenodd" clip-rule="evenodd" d="M53.9824 36.1018C53.7869 38.0787 52.011 39.5342 50.0342 39.3386L18.5486 36.224C16.5718 36.0285 15.1163 34.2526 15.3118 32.2758C15.5073 30.2989 17.2832 28.8435 19.2601 29.039L50.7456 32.1536C52.7225 32.3491 54.1779 34.125 53.9824 36.1018Z" fill="#808080"/>
<path fill-rule="evenodd" clip-rule="evenodd" d="M44.0819 11.0437C46.0044 10.5522 47.9813 11.7253 48.4701 13.6506L53.8846 34.8853C54.3761 36.8079 53.2031 38.7847 51.2778 39.2735C49.3553 39.765 47.3784 38.5919 46.8897 36.6667L41.4751 15.4319C40.9836 13.5094 42.1566 11.5325 44.0819 11.0437Z" fill="#808080"/>
<path fill-rule="evenodd" clip-rule="evenodd" d="M47.7858 12.4557C48.9236 14.0823 48.5244 16.3442 46.8978 17.482L20.9708 35.6157C19.3442 36.7535 17.0823 36.3543 15.9445 34.7278C14.8067 33.1012 15.2059 30.8393 16.8324 29.7015L42.7595 11.5678C44.386 10.43 46.648 10.8292 47.7858 12.4557Z" fill="#666666"/>
</svg>
